<?xml version="1.0" encoding="UTF-8"?>
<svg id="Camada_2" data-name="Camada 2" xmlns="http://www.w3.org/2000/svg" viewBox="0 0 270.72 218.004">
  <defs>
    <style>
      .cls-1 {
        fill: #4f200f;
      }
    </style>
  </defs>
  <g id="Camada_1-2" data-name="Camada 1">
    <g>
      <path class="cls-1" d="M141.91,210.066c-.634,1.444-1.474,2.766-2.582,3.899l-3.951,4.039c-2.896-2.827-6.817-6.361-7.021-10.168-.104-1.926.98-3.632,2.893-3.867,1.848-.227,3.309.438,4.196,2.333.58-1.579,1.702-2.382,3.269-2.367,1.052.01,1.948.199,2.654.877,1.231,1.183,1.258,3.455.543,5.253ZM140.246,205.467c-.933-.66-2.578-.746-3.25.412l-1.658,2.853c-.836-1.677-1.636-3.651-3.163-3.743-1.428-.086-2.94,1.274-2.736,2.769.292,2.144,1.457,3.989,2.9,5.482l3.122,3.23,1.173-1.377c2.786-2.71,6.589-7.518,3.612-9.625Z"/>
      <g>
        <path class="cls-1" d="M110.891,4.051c-.718,1.027-2.465,1.377-3.533.621-.718-.508-.749-1.844-.418-2.697.254-.655,1.221-1.22,2.121-1.441.837-.205,1.639.309,1.967.882.46.802.522,1.691-.137,2.635Z"/>
        <path class="cls-1" d="M80.302,13.584c.73.951.388,2.081-.372,2.59-.78.523-1.792.56-2.54-.111-.664-.595-.942-1.913-.129-2.685.75-.713,2.361-.679,3.041.206Z"/>
        <path class="cls-1" d="M90.122,2.596c-.496,1.479-2.52,1.647-3.371.678-.539-.614-.475-1.514-.084-2.152.316-.514.986-1.261,1.878-1.1.974.176,1.934,1.508,1.576,2.574Z"/>
        <path class="cls-1" d="M104.847,38.74c.244-.724-.165-1.499-.166-2.286l-.01-7.663c0-.702.455-1.397.139-2.159l-2.324,1.12c-1.751.471-3.022-.342-3.358-1.994-.271-1.334.796-2.903,2.427-2.936,1.331-.027,2.371.779,3.657,1.603.347-1.611.448-2.998.988-4.652-1.142-.128-2.036-.596-2.535-1.439-.532-.9-.603-2.206.245-3.002.93-.873,2.306-1.032,3.602-.936l.989-2.892c-.792-1.375-.685-3.368.572-4.437.938-.798,2.399-.387,3.143.32.815.774,1.233,2.07.545,3.065-.672.973-1.623,1.332-2.806,1.326-.253,1.055-.991,2.228-.945,3.233.421,1.011.83,1.8.505,2.854-.277.901-1.076,1.356-1.813,1.941-.583,1.047-.621,2.463-.936,3.867.913-.276,1.855-.638,2.814-.321,1.257.416,1.658,1.558,1.584,2.804-.072,1.207-.741,2.403-1.734,2.749-1.233.429-2.406.051-3.248-1.128l-.154,3.125c-.378,1.446-.076,2.656.005,4.113.334,6.037,1.832,11.797,4.413,17.252l3.349,6.062c2.281-.644,4.4-1.37,6.763-1.369l6.339.003c14.066,1.293,25.595,12.339,26.734,26.528.042.518-.284,1.31.29,1.625.775.425,1.794.446,2.355,1.257l-1.937-.262c-4.537-.614-9.737.538-13.367,3.32.849-2.35,3.816-3.817,6.446-4.342-.897-13.485-12.035-22.594-25.499-21.964l.004,41.512c4.209,1.902,9.095,3.11,13.69,2.696,6.021-.543,11.474-3.092,15.978-7.151s7.227-9.638,7.983-15.713l.192-2.657-.195-2.407c-.615-7.578-6.094-14.083-11.777-18.888l-10.282-8.694-5.375-5.393c-1.943-1.95-3.356-4.344-4.39-6.865-1.231-3.001-1.649-6.083-1.424-9.221.456-6.341,5.047-11.462,11.406-11.899,4.071-.28,7.654,1.132,10.315,4.158,1.629,1.852,2.719,4.127,2.954,6.658l-6.459-.002c-.552-1.948-1.969-3.326-3.483-4.01-1.876-.848-4.019-.698-5.583.49-2.685,2.04-3.521,5.338-2.703,8.527,1.102,4.296,4.033,8.215,7.296,11.19l3.26,2.972,7.353,6.076,3.015,2.747c1.287,1.172,2.449,2.291,3.6,3.61l1.68,1.926c9.957,11.414,9.146,28.627-.621,39.615-6.804,7.654-16.726,12.008-26.936,11.248-4.213-.313-8.031-1.394-11.827-3.079-1.321-.586-2.807-1.124-3.893-2.184l-.014-42.363c0-.653-.167-1.209-.605-1.399-5.942,2.066-10.906,6.08-13.868,11.585-1.711,3.181-2.828,6.385-3.175,10.017l-.033,6.139c1.633,16.597,16.94,27.85,33.115,28.967,10.223.706,20.101-3.01,27.885-9.63l4.793-4.801c5.515-6.487,8.794-14.434,9.557-22.891.952-10.545-3.171-20.159-10.036-27.999l-6.074-6.137-1.441-1.198-4.389-3.546,1.549-2.599c3.587-6.02,5.597-12.925,2.502-19.493-1.501-3.184-4.048-5.681-7.111-7.491-4.51-2.665-9.551-3.661-14.767-3.95l-11.665-.105.004,30.423c1.279.274,2.436.466,3.431,1.329-5.514-.79-10.741-.207-15.217,3.113.645-2.117,3.314-3.362,5.547-4.179l-.007-36.942,19.557.15c5.38.041,10.48,1.567,15.181,3.995,6.852,3.54,12.186,10.23,12.768,17.941l.182,2.415-.199,2.66c-.301,4.032-1.726,7.727-3.5,11.199l2.474,2.112,5.51,5.51c6.738,7.54,11.234,16.398,12.019,26.586l-.006,6.614c-1.438,19.175-14.783,35.596-32.998,41.316-3.08.967-6.022,1.584-9.217,1.817l-7.792.009c-11.322-.967-21.847-6.008-29.32-14.528-5.305-6.048-8.243-13.494-8.802-21.44l.002-4.402c.944-13.051,8.404-23.815,20.878-28.392-2.589-4.864-5.619-9.131-9.267-13.404-.542,1.876-1.292,3.538-2.857,4.443-1.187.687-2.4.772-3.5.138s-1.305-1.876-1.323-3.191c-.018-1.333.303-2.296,1.679-2.751,1.195-.395,2.555-.625,3.766-.625l.142-.136c-1.069-1.539-2.484-2.966-3.913-4.336l-.841-1.123c-1.082,1.881-2.674,2.418-4.626,2.296-1.248-.078-2.475-.218-3.13-1.363-.514-.898-.521-2.305.259-3.264,1.025-1.26,2.769-1.497,4.28-.891-.109-.686-.631-.979-.973-1.432l-2.746-3.636c-1.241,1.439-3.508,2.062-4.969.807-.9-.773-.797-2.235-.32-3.188.498-.995,1.336-1.714,2.736-1.865-2.501-4.625-4.056-10.311-3.309-15.099-.482-.491-.918-1.074-.93-1.705-.011-.615.369-1.292,1.069-1.701.87-.51,2.396-.556,3.175.23.59.595.394,1.69.018,2.345-.41.713-1,1.252-2.118,1.222l.054,3.556c.011.743.254,1.378.239,2.285,1.003-.704,2.08-1.2,3.243-1.02,1.126.174,1.755.952,2.036,1.75.354,1.007.118,1.91-.476,2.907-.574.963-1.964,1.266-3.22,1.331,1.695,4.214,4.254,7.861,7.115,11.366l1.499,1.837c.144-1.038.42-2.155,1.245-2.645,1.263-.751,2.681-.192,3.299.998.491.946.812,1.837.361,2.914-.281.671-1.036,1.36-2.008,1.895.831.722,1.383,1.606,2.168,2.364l1.471,1.421c.116-1.045-.292-2.245.361-3.068.602-.758,1.986-.309,2.48.404l.262-.128ZM105.109,39.064l-.25-.013c-.084.621.4.533.25.013ZM107.045,47.798c-.613-2.108-1.201-3.92-1.544-6.077-.332.944-.671,1.76-1.356,2.632l2.9,3.445ZM101.438,43.436l-.385.111c.082.269.515.182.385-.111Z"/>
      </g>
      <g>
        <path class="cls-1" d="M91.854,174.961c-.234-.024-.289-.598-.121-.721,1.241.056,2.188-.858,2.401-2.127l.385-2.292v-20.475s-.385-2.293-.385-2.293c-.212-1.261-1.147-2.197-2.414-2.113-.069-.274-.078-.435.009-.747l17.116.132c2.492.019,5.143.663,6.588,2.762,1.908,2.769.788,6.367-1.592,8.487l-4.172,2.656c4.594.504,7.03,4.073,7.078,8.311.052,4.595-2.891,8.286-7.728,8.315l-17.166.104ZM110.78,147.17c-1.099-.968-2.501-1.656-4.052-1.672l-7.852-.081.016,17.084,3.739-2.772,6.377-4.393c2.258-1.555,4.03-5.652,1.772-8.167ZM106.904,173.741c2.603-.628,4.443-2.449,5.018-4.958.879-2.67.156-5.681-1.947-7.549-3.207-2.848-8.401-.246-11.113,3.115l.019,9.399,8.023-.006Z"/>
        <path class="cls-1" d="M132.389,160.775c-1.425-.592-2.842-.02-3.517,1.223l.01,11.775,8.853-.126c4.249-.51,7.745-3.44,9.553-7.177.437.168.393.665.285,1.004l-2.353,7.443-23.708.034c-.117-.17-.131-.535-.068-.617-.003.004,2.797-.184,2.806-3.609l.058-21.904c.005-1.719-1.019-4.126-2.823-3.88-.085-.261-.084-.467.016-.718h23.012s1.82,6.576,1.82,6.576c.144.205-.04.564-.509.421-1.523-2.968-4.405-5.27-7.904-5.683l-9.044-.137.024,14.208c2.038-3.213,5.46-2.897,9.056-1.409,3.25,1.345,4.014-.98,4.725-1.034.277-.021.407.112.37.379-.027.194-.144.362-.257.612-.744,1.65-1.731,3.344-3.653,3.749-.908.191-2.116.269-3.007,0l-3.747-1.129Z"/>
        <g>
          <path class="cls-1" d="M36.483,174.261c1.365.029,2.365-.966,2.529-2.304l.309-2.519-.003-4.835-1.745,2.581c-.198.293-1.359-.455-1.101-.845l2.896-4.377-.068-12.625-.359-2.288c-.197-1.259-1.143-2.197-2.422-2.109-.062-.274-.068-.441-.002-.756,2.436.266,5.402-.929,6.895-2.897l.06,14.482,1.72-2.688c.544.151.965.369,1.448.688l-3.201,4.702.084,10.879.348,2.736c.165,1.296,1.068,2.248,2.423,2.135.054.274.055.457-.016.72l-9.346.018c-.313.009-.621-.141-.448-.699Z"/>
          <path class="cls-1" d="M30.165,171.708c-2.495,2.626-7.101,3.318-10.789,3.103-4.337-.252-8.479-1.677-11.702-4.662l.006-7.642c.242-.092.494-.068.647.011.719,2.544,1.888,4.959,3.592,6.941,3.72,4.328,9.576,5.599,14.591,2.974,1.98-1.036,3.063-2.917,2.796-5.203-.511-4.363-4.863-5.48-8.669-6.447l-6.891-1.75c-2.141-.544-4.097-1.878-5.306-3.789-1.583-2.502-.617-5.444,1.453-7.393,5.578-5.253,16.397-4.328,22.522.546l-1.73,4.566-2.388-2.953c-3.872-4.788-10.217-6.274-14.78-2.619-1.065.853-2.168,2.326-1.887,3.669.454,2.171,2.543,3.269,4.435,3.974l6.945,1.724c2.577.64,5.353,1.281,7.248,3.309,2.974,3.182,2.882,8.51-.092,11.64Z"/>
          <path class="cls-1" d="M69.672,173.623c-5.884,2.531-14.9,1.178-19.732-3.538l-.014-7.551c.084-.098.498-.119.583-.068.405.242,1.037,4.957,5.267,8.531,3.726,3.148,8.888,3.725,13.15,1.362,1.612-.894,2.713-2.527,2.775-4.441.077-2.36-1.605-4.439-3.724-5.514-4.109-2.084-10.016-1.9-14.41-4.524-2.02-1.207-3.693-3.023-3.592-5.449s1.607-4.297,3.492-5.625c5.622-3.96,15.623-3.011,21.229,1.597l-1.693,4.649-3.113-3.835c-3.937-4.765-11.838-5.163-15.176-.694-.948,1.269-1.022,2.92-.046,4.144.958,1.202,2.223,1.964,3.673,2.35l4.732,1.26c5.198,1.384,11.409,1.888,11.63,9.299.108,3.63-1.67,6.601-5.032,8.047Z"/>
        </g>
        <path class="cls-1" d="M168.716,164.191c-3.196,5.327-7.839,1.838-11.258,1.446-1.828-.209-2.457,1.444-2.97,2.747-.61,1.549-.909,2.641-.231,4.243.354.838.865,1.501,2.027,1.566l.554.031c.176.01.211.682.049.683l-7.557.048c-.08-.287-.075-.455-.026-.745,1.376.206,2.244-.618,2.691-1.891l9.841-28.067h4.672s9.813,28.068,9.813,28.068c.446,1.275,1.329,2.094,2.692,1.891.052.286.052.467-.017.736h-9.033c-.075-.264-.124-.429.065-.776.539.266,1.973-.388,1.719-1.13l-3.032-8.849ZM168.254,162.772l-5.875-16.678-6.021,17.108c4.79-3.214,9.092,2.452,11.896-.43Z"/>
        <path class="cls-1" d="M199.304,144.908c-.127-.043-.192-.499-.057-.682l6.632-.005c.071.268.071.454.001.725-1.105-.062-2.161.529-2.391,1.646l-.409,1.981-.145,15.679c-.017,1.893-.41,3.714-1.094,5.401-1.327,3.272-4.458,4.918-7.861,5.166l-2.534.007c-2.346.006-4.663-.788-6.45-2.53-2.014-1.963-2.688-4.753-2.723-7.598l-.199-16.268c-.023-1.883-1.147-3.649-2.672-3.485-.179.019-.209-.689-.051-.692l9.956-.038c.092.28.092.451,0,.726-1.915-.037-2.619,1.897-2.605,4.088l.107,16.469c.014,2.17,1.178,5.206,3.003,6.369,3.613,2.302,8.41,1.069,10.626-2.668.864-1.457,1.253-3.32,1.369-5.021l.201-2.941.037-10.275-.227-2.193c-.202-1.945-.364-3.748-2.514-3.862Z"/>
        <path class="cls-1" d="M226.969,174.914l-9.956.038c-.088-.28-.085-.459-.014-.737,1.551.293,2.586-1.731,2.587-3.152l.017-25.65c-4.045-.218-7.798,1.874-9.77,5.364-.154.272-.094.445-.439.426-.398-.021-.393-.258-.278-.659l1.803-6.319,22.06-.003,1.721,6.278c.066.239.071.606-.094.669-.346.131-.568-.011-.703-.359-1.242-3.214-6.092-5.9-9.761-5.347l.088,25.255c.006,1.788,1.121,3.658,2.69,3.503.18-.018.209.69.051.693Z"/>
        <path class="cls-1" d="M252.715,157.586l.067,12.249.358,2.282c.198,1.26,1.143,2.196,2.422,2.11.069.269.069.452-.006.718h-9.991c-.073-.268-.073-.446-.011-.716,1.383.091,2.245-.951,2.53-2.264l.279-2.078.041-9.573-7.61-13.739c-.575-1.038-1.476-1.657-2.689-1.639-.049-.26-.053-.447.018-.714h9.034c.072.265.073.455.007.729-.54-.027-.997.163-1.231.528-.271.424-.125.84.144,1.318l5.753,10.226,6.223-9.431c.597-.905-1.003-2.66-1.866-2.595-.432-.098-.504-.064-.703-.049-.178.014-.212-.686-.049-.687l7.556-.048c.089.282.085.46.002.724-.965.032-1.859.547-2.451,1.399l-7.825,11.25Z"/>
      </g>
      <g>
        <rect class="cls-1" y="210.224" width="120.24" height="1.44"/>
        <rect class="cls-1" x="150.48" y="210.224" width="120.24" height="1.44"/>
      </g>
    </g>
  </g>
</svg>