<?xml version="1.0" encoding="UTF-8"?>
<svg id="Camada_2" data-name="Camada 2" xmlns="http://www.w3.org/2000/svg" viewBox="0 0 102.905 127.562">
  <defs>
    <style>
      .cls-1 {
        fill: #4f200f;
      }
    </style>
  </defs>
  <g id="Camada_1-2" data-name="Camada 1">
    <g>
      <path class="cls-1" d="M34.129,4.051c-.718,1.027-2.465,1.377-3.533.621-.718-.508-.749-1.844-.418-2.697.254-.655,1.221-1.22,2.121-1.441.837-.205,1.639.309,1.967.882.46.802.522,1.691-.137,2.635Z"/>
      <path class="cls-1" d="M3.54,13.584c.73.951.388,2.081-.372,2.59-.78.523-1.792.56-2.54-.111-.664-.595-.942-1.913-.129-2.685.75-.713,2.361-.679,3.041.206Z"/>
      <path class="cls-1" d="M13.36,2.596c-.496,1.479-2.52,1.647-3.371.678-.539-.614-.475-1.514-.084-2.152.316-.514.986-1.261,1.878-1.1.974.176,1.934,1.508,1.576,2.574Z"/>
      <path class="cls-1" d="M28.085,38.74c.244-.724-.165-1.499-.166-2.286l-.01-7.663c0-.702.455-1.397.139-2.159l-2.324,1.12c-1.751.471-3.022-.342-3.358-1.994-.271-1.334.796-2.903,2.427-2.936,1.331-.027,2.371.779,3.657,1.603.347-1.611.448-2.998.988-4.652-1.142-.128-2.036-.596-2.535-1.439-.532-.9-.603-2.206.245-3.002.93-.873,2.306-1.032,3.602-.936l.989-2.892c-.792-1.375-.685-3.368.572-4.437.938-.798,2.399-.387,3.143.32.815.774,1.233,2.07.545,3.065-.672.973-1.623,1.332-2.806,1.326-.253,1.055-.991,2.228-.945,3.233.421,1.011.83,1.8.505,2.854-.277.901-1.076,1.356-1.813,1.941-.583,1.047-.621,2.463-.936,3.867.913-.276,1.855-.638,2.814-.321,1.257.416,1.658,1.558,1.584,2.804-.072,1.207-.741,2.403-1.734,2.749-1.233.429-2.406.051-3.248-1.128l-.154,3.125c-.378,1.446-.076,2.656.005,4.113.334,6.037,1.832,11.797,4.413,17.252l3.349,6.062c2.281-.644,4.4-1.37,6.763-1.369l6.339.003c14.066,1.293,25.595,12.339,26.734,26.528.042.518-.284,1.31.29,1.625.775.425,1.794.446,2.355,1.257l-1.937-.262c-4.537-.614-9.737.538-13.367,3.32.849-2.35,3.816-3.817,6.446-4.342-.897-13.485-12.035-22.594-25.499-21.964l.004,41.512c4.209,1.902,9.095,3.11,13.69,2.696,6.021-.543,11.474-3.092,15.978-7.151s7.227-9.638,7.983-15.713l.192-2.657-.195-2.407c-.615-7.578-6.094-14.083-11.777-18.888l-10.282-8.694-5.375-5.393c-1.943-1.95-3.356-4.344-4.39-6.865-1.231-3.001-1.649-6.083-1.424-9.221.456-6.341,5.047-11.462,11.406-11.899,4.071-.28,7.654,1.132,10.315,4.158,1.629,1.852,2.719,4.127,2.954,6.658l-6.459-.002c-.552-1.948-1.969-3.326-3.483-4.01-1.876-.848-4.019-.698-5.583.49-2.685,2.04-3.521,5.338-2.703,8.527,1.102,4.296,4.033,8.215,7.296,11.19l3.26,2.972,7.353,6.076,3.015,2.747c1.287,1.172,2.449,2.291,3.6,3.61l1.68,1.926c9.957,11.414,9.146,28.627-.621,39.615-6.804,7.654-16.726,12.008-26.936,11.248-4.213-.313-8.031-1.394-11.827-3.079-1.321-.586-2.807-1.124-3.893-2.184l-.014-42.363c0-.653-.167-1.209-.605-1.399-5.942,2.066-10.906,6.08-13.868,11.585-1.711,3.181-2.828,6.385-3.175,10.017l-.033,6.139c1.633,16.597,16.94,27.85,33.115,28.967,10.223.706,20.101-3.01,27.885-9.63l4.793-4.801c5.515-6.487,8.794-14.434,9.557-22.891.952-10.545-3.171-20.159-10.036-27.999l-6.074-6.137-1.441-1.198-4.389-3.546,1.549-2.599c3.587-6.02,5.597-12.925,2.502-19.493-1.501-3.184-4.048-5.681-7.111-7.491-4.51-2.665-9.551-3.661-14.767-3.95l-11.665-.105.004,30.423c1.279.274,2.436.466,3.431,1.329-5.514-.79-10.741-.207-15.217,3.113.645-2.117,3.314-3.362,5.547-4.179l-.007-36.942,19.557.15c5.38.041,10.48,1.567,15.181,3.995,6.852,3.54,12.186,10.23,12.768,17.941l.182,2.415-.199,2.66c-.301,4.032-1.726,7.727-3.5,11.199l2.474,2.112,5.51,5.51c6.738,7.54,11.234,16.398,12.019,26.586l-.006,6.614c-1.438,19.175-14.783,35.596-32.998,41.316-3.08.967-6.022,1.584-9.217,1.817l-7.792.009c-11.322-.967-21.847-6.008-29.32-14.528-5.305-6.048-8.243-13.494-8.802-21.44l.002-4.402c.944-13.051,8.404-23.815,20.878-28.392-2.589-4.864-5.619-9.131-9.267-13.404-.542,1.876-1.292,3.538-2.857,4.443-1.187.687-2.4.772-3.5.138s-1.305-1.876-1.323-3.191c-.018-1.333.303-2.296,1.679-2.751,1.195-.395,2.555-.625,3.766-.625l.142-.136c-1.069-1.539-2.484-2.966-3.913-4.336l-.841-1.123c-1.082,1.881-2.674,2.418-4.626,2.296-1.248-.078-2.475-.218-3.13-1.363-.514-.898-.521-2.305.259-3.264,1.025-1.26,2.769-1.497,4.28-.891-.109-.686-.631-.979-.973-1.432l-2.746-3.636c-1.241,1.439-3.508,2.062-4.969.807-.9-.773-.797-2.235-.32-3.188.498-.995,1.336-1.714,2.736-1.865-2.501-4.625-4.056-10.311-3.309-15.099-.482-.491-.918-1.074-.93-1.705-.011-.615.369-1.292,1.069-1.701.87-.51,2.396-.556,3.175.23.59.595.394,1.69.018,2.345-.41.713-1,1.252-2.118,1.222l.054,3.556c.011.743.254,1.378.239,2.285,1.003-.704,2.08-1.2,3.243-1.02,1.126.174,1.755.952,2.036,1.75.354,1.007.118,1.91-.476,2.907-.574.963-1.964,1.266-3.22,1.331,1.695,4.214,4.254,7.861,7.115,11.366l1.499,1.837c.144-1.038.42-2.155,1.245-2.645,1.263-.751,2.681-.192,3.299.998.491.946.812,1.837.361,2.914-.281.671-1.036,1.36-2.008,1.895.831.722,1.383,1.606,2.168,2.364l1.471,1.421c.116-1.045-.292-2.245.361-3.068.602-.758,1.986-.309,2.48.404l.262-.128ZM28.347,39.064l-.25-.013c-.084.621.4.533.25.013ZM30.284,47.798c-.613-2.108-1.201-3.92-1.544-6.077-.332.944-.671,1.76-1.356,2.632l2.9,3.445ZM24.676,43.436l-.385.111c.082.269.515.182.385-.111Z"/>
    </g>
  </g>
</svg>